# xmcd CD database file
#
# Track frame offsets:
#	150
#	23789
#	57994
#	75246
#	106225
#	131217
#	166573
#	207577
#	237548
#	255427
#	276798
#	305042
#
# Disc length: 4304 seconds
#
# Revision: 0
# Processed by: cddbd v1.5.2PL0 Copyright (c) Steve Scherf et al.
# Submitted via: CDex 1.70beta2
#
DISCID=9f10ce0c
DTITLE=Gregory Fine Trio -  Waltz For You
DYEAR=1900
DGENRE=Jazz
TTITLE0=Honeysuckle Rose
TTITLE1=These Foolish Things
TTITLE2=Indiana
TTITLE3=Waltz For You
TTITLE4=Embraceable You
TTITLE5=Who Can I Turn To
TTITLE6=Willow Weer For Me
TTITLE7=I Will Be Back
TTITLE8=Dark Eyes
TTITLE9=On Green Dolphin Street
TTITLE10=Caravan
TTITLE11=Lester Leaps In
EXTD=
EXTT0=
EXTT1=
EXTT2=
EXTT3=
EXTT4=
EXTT5=
EXTT6=
EXTT7=
EXTT8=
EXTT9=
EXTT10=
EXTT11=
PLAYORDER=
